<?xml version="1.0" standalone="no"?>
<!DOCTYPE svg PUBLIC "-//W3C//DTD SVG 20010904//EN"
 "http://www.w3.org/TR/2001/REC-SVG-20010904/DTD/svg10.dtd">
<svg version="1.0" xmlns="http://www.w3.org/2000/svg"
 width="512.000000pt" height="512.000000pt" viewBox="0 0 512.000000 512.000000"
 preserveAspectRatio="xMidYMid meet">

<g transform="translate(0.000000,512.000000) scale(0.100000,-0.100000)"
fill="#000000" stroke="none">
<path d="M2357 4765 c-108 -190 -197 -348 -197 -352 0 -5 61 -43 136 -85 l135
-77 17 28 c9 15 37 65 62 109 25 45 47 82 50 81 9 0 1085 -1893 1085 -1909 0
-16 -1076 -1909 -1085 -1909 -6 0 -1084 1886 -1088 1904 -1 6 34 75 78 153 45
78 80 147 78 152 -2 6 -62 44 -133 85 -115 66 -131 72 -142 58 -7 -9 -67 -112
-134 -230 l-122 -213 729 -1275 c400 -701 731 -1275 734 -1275 3 0 334 574
734 1275 l729 1275 -729 1275 c-400 701 -731 1275 -734 1275 -3 0 -94 -155
-203 -345z"/>
<path d="M1917 3995 c-42 -74 -77 -137 -77 -139 0 -5 263 -156 272 -156 7 0
161 270 156 274 -4 4 -269 156 -272 156 -1 0 -36 -61 -79 -135z"/>
<path d="M1600 3441 c-40 -71 -73 -133 -73 -138 0 -7 36 -30 214 -131 l57 -32
76 135 c43 74 75 139 72 144 -7 10 -252 151 -264 151 -4 0 -41 -58 -82 -129z"/>
</g>
</svg>
